<?xml version="1.0" standalone="no"?>
<!DOCTYPE svg PUBLIC "-//W3C//DTD SVG 20010904//EN"
 "http://www.w3.org/TR/2001/REC-SVG-20010904/DTD/svg10.dtd">
<svg version="1.0" xmlns="http://www.w3.org/2000/svg"
 width="512.000000pt" height="512.000000pt" viewBox="0 0 512.000000 512.000000"
 preserveAspectRatio="xMidYMid meet">
<metadata>
Created by potrace 1.11, written by Peter Selinger 2001-2013
</metadata>
<g transform="translate(0.000000,512.000000) scale(0.100000,-0.100000)"
fill="#000000" stroke="none">
<path d="M393 5106 c-183 -45 -330 -190 -377 -373 -15 -56 -16 -269 -14 -2195
l3 -2133 22 -60 c67 -175 220 -306 393 -335 46 -8 684 -10 2180 -8 l2115 3 68
27 c86 35 141 73 205 143 60 66 106 156 122 240 8 44 10 633 8 2180 l-3 2120
-23 59 c-64 169 -213 300 -380 335 -82 17 -4248 14 -4319 -3z m3467 -1361 l0
-376 -157 3 -158 3 -31 210 c-18 116 -33 211 -33 213 -1 1 -161 2 -356 2
l-355 0 0 -1234 c0 -705 4 -1237 9 -1240 5 -3 83 -18 175 -33 l166 -27 0 -138
0 -138 -560 0 -561 0 3 137 3 138 173 29 172 29 0 1239 0 1238 -355 0 c-195 0
-355 -2 -355 -4 0 -2 -13 -97 -30 -211 -16 -114 -30 -209 -30 -211 0 -2 -72
-4 -160 -4 l-160 0 0 375 0 375 1300 0 1300 0 0 -375z"/>
</g>
</svg>
